<?xml version="1.0" standalone="no"?>
<!DOCTYPE svg PUBLIC "-//W3C//DTD SVG 20010904//EN"
 "http://www.w3.org/TR/2001/REC-SVG-20010904/DTD/svg10.dtd">
<svg version="1.0" xmlns="http://www.w3.org/2000/svg"
 width="3343.000000pt" height="1415.000000pt" viewBox="0 0 3343.000000 1415.000000"
 preserveAspectRatio="xMidYMid meet">

<g transform="translate(0.000000,1415.000000) scale(0.100000,-0.100000)"
fill="#000000" stroke="none">
<path d="M3714 10136 c-17 -8 -39 -25 -48 -38 -10 -12 -267 -484 -572 -1048
-305 -564 -576 -1062 -600 -1108 l-46 -83 434 3 c392 3 436 5 465 21 18 9 40
28 48 40 8 13 101 234 205 492 105 259 197 480 206 492 8 13 26 31 41 40 25
17 110 18 1390 23 l1362 5 -287 537 c-158 295 -297 550 -309 566 -12 16 -42
39 -66 51 -43 21 -44 21 -1118 21 -883 -1 -1080 -3 -1105 -14z"/>
<path d="M16720 8879 c-227 -24 -434 -84 -645 -189 -530 -264 -885 -762 -970
-1363 -20 -136 -19 -420 0 -556 147 -1009 1030 -1666 2070 -1540 108 13 308
63 414 104 415 158 752 456 952 842 l49 93 0 398 c0 362 -2 400 -19 437 -27
60 -89 111 -150 124 -35 7 -274 11 -737 11 l-685 0 3 -228 3 -229 29 -41 c18
-26 47 -51 79 -67 l51 -25 408 0 408 0 0 -100 c0 -118 -8 -138 -98 -251 -160
-202 -410 -346 -682 -393 -344 -59 -671 0 -923 168 -235 156 -390 388 -458
686 -26 111 -36 357 -20 471 74 520 410 879 902 965 128 22 390 15 500 -14
205 -55 366 -142 503 -274 50 -47 109 -114 131 -147 22 -33 45 -61 50 -61 28
-2 675 177 675 186 0 21 -126 221 -192 305 -101 130 -278 295 -409 382 -357
238 -810 350 -1239 306z"/>
<path d="M23690 8879 c-418 -42 -822 -231 -1112 -521 -485 -485 -651 -1221
-431 -1907 51 -161 165 -383 262 -511 427 -568 1144 -831 1865 -685 237 48
497 159 686 293 120 85 293 251 383 367 244 316 377 715 377 1135 0 584 -250
1109 -693 1453 -370 288 -855 424 -1337 376z m501 -702 c430 -113 717 -425
806 -875 24 -121 24 -386 0 -502 -53 -256 -155 -448 -320 -607 -213 -204 -472
-303 -792 -303 -197 0 -375 39 -528 116 -415 208 -644 657 -597 1168 50 534
370 907 871 1015 80 18 121 20 279 17 158 -3 199 -7 281 -29z"/>
<path d="M31310 8880 c-353 -44 -639 -175 -841 -386 -160 -167 -243 -358 -256
-584 -13 -249 61 -453 230 -627 181 -186 380 -285 911 -453 307 -97 466 -159
576 -226 185 -111 261 -260 215 -420 -33 -116 -109 -200 -237 -265 -180 -91
-484 -98 -688 -16 -255 103 -414 307 -455 583 l-6 41 -231 -63 c-296 -81 -289
-79 -326 -117 -61 -63 -77 -143 -46 -234 56 -166 177 -357 314 -493 107 -107
205 -178 338 -245 503 -254 1219 -202 1646 119 285 215 434 558 397 909 -37
340 -206 577 -547 763 -133 72 -271 125 -660 253 -407 134 -554 197 -642 277
-70 62 -96 113 -96 189 -2 211 162 350 455 386 167 20 304 -2 449 -73 68 -33
101 -57 165 -122 94 -95 144 -185 176 -316 11 -47 22 -86 23 -88 4 -4 476 127
496 138 41 22 88 89 100 143 16 68 3 116 -72 259 -172 330 -505 567 -914 648
-116 23 -362 33 -474 20z"/>
<path d="M12190 7058 c-476 -968 -866 -1765 -868 -1769 -5 -13 635 -11 682 2
80 22 113 70 261 379 76 157 146 293 157 303 19 16 74 17 855 17 572 0 841 -3
854 -11 12 -6 77 -127 168 -312 158 -324 176 -350 260 -376 41 -12 681 -16
681 -4 0 3 -390 800 -867 1770 l-866 1763 -226 0 -226 -1 -865 -1761z m1364
141 c147 -303 265 -553 263 -555 -2 -2 -245 -3 -540 -2 l-535 3 266 552 c147
304 270 552 273 553 3 0 126 -248 273 -551z"/>
<path d="M19305 8808 c-48 -17 -94 -56 -118 -101 l-22 -42 0 -1615 0 -1615 28
-47 c18 -31 44 -57 75 -75 l47 -28 268 -3 267 -3 0 1446 0 1447 363 -4 c396
-5 419 -8 544 -69 181 -87 277 -271 259 -490 -19 -231 -146 -377 -383 -441
-68 -18 -114 -21 -355 -25 -153 -3 -278 -6 -278 -8 0 -1 243 -396 541 -876
357 -577 555 -888 583 -916 26 -24 60 -46 84 -52 26 -7 157 -10 376 -9 l335 3
-420 674 c-231 370 -419 674 -417 676 2 1 28 15 58 30 231 116 420 325 509
565 53 142 65 224 65 425 0 159 -4 205 -21 282 -107 459 -447 753 -987 855
-104 20 -150 21 -741 24 -436 2 -639 0 -660 -8z"/>
<path d="M25892 8809 c-46 -14 -115 -85 -130 -135 -8 -28 -12 -119 -12 -273
l0 -231 545 0 545 0 0 -1445 0 -1445 340 0 340 0 0 1445 0 1445 458 0 c288 0
471 4 495 11 47 13 102 60 128 110 17 35 19 60 19 284 l0 245 -1347 -1 c-826
0 -1361 -5 -1381 -10z"/>
<path d="M29109 8793 c-40 -21 -61 -40 -84 -77 l-30 -49 -3 -1694 -2 -1693
247 0 c145 0 264 5 287 11 21 6 58 29 82 51 80 73 74 -64 74 1810 l0 1668
-258 0 -258 0 -55 -27z"/>
<path d="M4125 8530 c-23 -11 -48 -32 -57 -47 -17 -29 -398 -927 -398 -938 0
-20 -49 -70 -84 -86 -39 -17 -79 -19 -684 -19 -625 0 -644 -1 -682 -20 -22
-11 -50 -37 -63 -58 -53 -85 -419 -754 -414 -758 2 -2 544 -11 1203 -18 1192
-14 1199 -14 1242 6 23 11 48 30 54 41 6 12 78 180 159 372 163 389 174 406
259 424 36 8 463 11 1415 11 751 0 1365 2 1365 5 0 10 -553 1020 -569 1039 -9
10 -38 29 -66 42 l-50 24 -1295 0 c-1274 0 -1296 0 -1335 -20z"/>
<path d="M4933 6991 c-23 -11 -48 -30 -57 -43 -8 -12 -88 -178 -177 -368 -89
-190 -173 -357 -187 -372 -57 -61 26 -58 -1537 -67 -1541 -8 -1471 -6 -1518
-58 -20 -23 -449 -794 -445 -799 2 -1 919 -4 2038 -5 2195 -2 2076 -4 2122 48
10 10 94 181 187 379 103 219 180 371 198 389 16 17 48 36 70 43 31 9 337 12
1278 12 1068 0 1236 2 1232 14 -16 42 -412 755 -430 775 -12 13 -44 34 -72 47
l-50 24 -1305 0 c-1259 0 -1306 -1 -1347 -19z"/>
<path d="M5964 5721 c-45 -11 -89 -40 -107 -70 -8 -14 -88 -181 -177 -371
-172 -368 -191 -398 -267 -419 -26 -8 -730 -11 -2308 -11 -2208 0 -2271 -1
-2312 -19 -25 -12 -52 -35 -66 -58 -41 -63 -438 -785 -434 -789 2 -2 2033 -3
4514 -2 l4510 3 -446 826 c-245 455 -452 834 -460 844 -8 9 -38 29 -65 43
l-51 27 -1150 2 c-632 0 -1164 -2 -1181 -6z"/>
</g>
</svg>
